ply
format ascii 1.0
comment Created by Blender 2.83.5 - www.blender.org, source file: ''
element vertex 80
property float x
property float y
property float z
property float nx
property float ny
property float nz
property float s
property float t
element face 68
property list uchar uint vertex_indices
end_header
-0.500000 3.000000 -0.500000 -1.000000 -0.000000 0.000000 0.375000 0.218750
-0.500000 4.000000 0.500000 -1.000000 -0.000000 0.000000 0.625000 0.250000
-0.500000 4.000000 -0.500000 -1.000000 -0.000000 0.000000 0.375000 0.250000
-0.500000 4.000000 -0.500000 0.000000 1.000000 -0.000000 0.375000 0.250000
0.500000 4.000000 0.500000 0.000000 1.000000 -0.000000 0.625000 0.500000
0.500000 4.000000 -0.500000 0.000000 1.000000 -0.000000 0.375000 0.500000
0.500000 -3.000000 -0.500000 1.000000 -0.000000 0.000000 0.375000 0.718750
0.500000 -4.000000 0.500000 1.000000 -0.000000 0.000000 0.625000 0.750000
0.500000 -4.000000 -0.500000 1.000000 -0.000000 0.000000 0.375000 0.750000
0.500000 -4.000000 -0.500000 0.000000 -1.000000 0.000000 0.375000 0.750000
-0.500000 -4.000000 0.500000 0.000000 -1.000000 0.000000 0.625000 1.000000
-0.500000 -4.000000 -0.500000 0.000000 -1.000000 0.000000 0.375000 1.000000
-0.500000 -3.000000 -0.500000 0.000000 0.000000 -1.000000 0.125000 0.718750
0.500000 -4.000000 -0.500000 0.000000 0.000000 -1.000000 0.375000 0.750000
-0.500000 -4.000000 -0.500000 0.000000 0.000000 -1.000000 0.125000 0.750000
0.500000 -3.000000 0.500000 0.000000 -0.000000 1.000000 0.625000 0.718750
-0.500000 -4.000000 0.500000 0.000000 -0.000000 1.000000 0.875000 0.750000
0.500000 -4.000000 0.500000 0.000000 -0.000000 1.000000 0.625000 0.750000
0.500000 1.000000 0.500000 0.000000 -0.000000 1.000000 0.625000 0.593750
-0.500000 0.000000 0.500000 0.000000 -0.000000 1.000000 0.875000 0.625000
0.500000 0.000000 0.500000 0.000000 -0.000000 1.000000 0.625000 0.625000
-0.500000 1.000000 -0.500000 0.000000 0.000000 -1.000000 0.125000 0.593750
0.500000 0.000000 -0.500000 0.000000 0.000000 -1.000000 0.375000 0.625000
-0.500000 0.000000 -0.500000 0.000000 0.000000 -1.000000 0.125000 0.625000
0.500000 1.000000 -0.500000 1.000000 -0.000000 0.000000 0.375000 0.593750
0.500000 0.000000 0.500000 1.000000 -0.000000 0.000000 0.625000 0.625000
0.500000 0.000000 -0.500000 1.000000 -0.000000 0.000000 0.375000 0.625000
-0.500000 -1.000000 -0.500000 -1.000000 -0.000000 0.000000 0.375000 0.093750
-0.500000 0.000000 0.500000 -1.000000 -0.000000 0.000000 0.625000 0.125000
-0.500000 0.000000 -0.500000 -1.000000 -0.000000 0.000000 0.375000 0.125000
-0.500000 -3.000000 -0.500000 -1.000000 -0.000000 0.000000 0.375000 0.031250
-0.500000 -2.000000 0.500000 -1.000000 -0.000000 0.000000 0.625000 0.062500
-0.500000 -2.000000 -0.500000 -1.000000 -0.000000 0.000000 0.375000 0.062500
0.500000 -1.000000 0.500000 0.000000 -0.000000 1.000000 0.625000 0.656250
-0.500000 -2.000000 0.500000 0.000000 -0.000000 1.000000 0.875000 0.687500
0.500000 -2.000000 0.500000 0.000000 -0.000000 1.000000 0.625000 0.687500
-0.500000 -1.000000 -0.500000 0.000000 0.000000 -1.000000 0.125000 0.656250
0.500000 -2.000000 -0.500000 0.000000 0.000000 -1.000000 0.375000 0.687500
-0.500000 -2.000000 -0.500000 0.000000 0.000000 -1.000000 0.125000 0.687500
0.500000 -1.000000 -0.500000 1.000000 -0.000000 0.000000 0.375000 0.656250
0.500000 -2.000000 0.500000 1.000000 -0.000000 0.000000 0.625000 0.687500
0.500000 -2.000000 -0.500000 1.000000 -0.000000 0.000000 0.375000 0.687500
0.500000 3.000000 -0.500000 1.000000 -0.000000 0.000000 0.375000 0.531250
0.500000 2.000000 0.500000 1.000000 -0.000000 0.000000 0.625000 0.562500
0.500000 2.000000 -0.500000 1.000000 -0.000000 0.000000 0.375000 0.562500
-0.500000 3.000000 -0.500000 0.000000 0.000000 -1.000000 0.125000 0.531250
0.500000 2.000000 -0.500000 0.000000 0.000000 -1.000000 0.375000 0.562500
-0.500000 2.000000 -0.500000 0.000000 0.000000 -1.000000 0.125000 0.562500
0.500000 3.000000 0.500000 0.000000 -0.000000 1.000000 0.625000 0.531250
-0.500000 2.000000 0.500000 0.000000 -0.000000 1.000000 0.875000 0.562500
0.500000 2.000000 0.500000 0.000000 -0.000000 1.000000 0.625000 0.562500
-0.500000 1.000000 -0.500000 -1.000000 -0.000000 0.000000 0.375000 0.156250
-0.500000 2.000000 0.500000 -1.000000 -0.000000 0.000000 0.625000 0.187500
-0.500000 2.000000 -0.500000 -1.000000 -0.000000 0.000000 0.375000 0.187500
-0.500000 -4.000000 -0.500000 -1.000000 -0.000000 0.000000 0.375000 0.000000
-0.500000 -3.000000 0.500000 -1.000000 -0.000000 0.000000 0.625000 0.031250
-0.500000 -3.000000 0.500000 0.000000 -0.000000 1.000000 0.875000 0.718750
0.500000 -3.000000 -0.500000 0.000000 0.000000 -1.000000 0.375000 0.718750
0.500000 -3.000000 0.500000 1.000000 -0.000000 0.000000 0.625000 0.718750
0.500000 -1.000000 0.500000 1.000000 -0.000000 0.000000 0.625000 0.656250
0.500000 -1.000000 -0.500000 0.000000 0.000000 -1.000000 0.375000 0.656250
-0.500000 -1.000000 0.500000 0.000000 -0.000000 1.000000 0.875000 0.656250
-0.500000 -1.000000 0.500000 -1.000000 -0.000000 0.000000 0.625000 0.093750
-0.500000 1.000000 0.500000 -1.000000 -0.000000 0.000000 0.625000 0.156250
0.500000 1.000000 0.500000 1.000000 -0.000000 0.000000 0.625000 0.593750
0.500000 1.000000 -0.500000 0.000000 0.000000 -1.000000 0.375000 0.593750
-0.500000 1.000000 0.500000 0.000000 -0.000000 1.000000 0.875000 0.593750
0.500000 4.000000 0.500000 0.000000 -0.000000 1.000000 0.625000 0.500000
-0.500000 3.000000 0.500000 0.000000 -0.000000 1.000000 0.875000 0.531250
-0.500000 4.000000 -0.500000 0.000000 0.000000 -1.000000 0.125000 0.500000
0.500000 3.000000 -0.500000 0.000000 0.000000 -1.000000 0.375000 0.531250
0.500000 4.000000 -0.500000 1.000000 -0.000000 0.000000 0.375000 0.500000
0.500000 3.000000 0.500000 1.000000 -0.000000 0.000000 0.625000 0.531250
-0.500000 3.000000 0.500000 -1.000000 -0.000000 0.000000 0.625000 0.218750
-0.500000 4.000000 0.500000 0.000000 1.000000 0.000000 0.625000 0.250000
0.500000 -4.000000 0.500000 0.000000 -1.000000 0.000000 0.625000 0.750000
-0.500000 -4.000000 0.500000 -1.000000 -0.000000 -0.000000 0.625000 0.000000
-0.500000 4.000000 0.500000 0.000000 0.000000 1.000000 0.875000 0.500000
0.500000 4.000000 -0.500000 0.000000 0.000000 -1.000000 0.375000 0.500000
0.500000 4.000000 0.500000 1.000000 -0.000000 0.000000 0.625000 0.500000
3 0 1 2
3 3 4 5
3 6 7 8
3 9 10 11
3 12 13 14
3 15 16 17
3 18 19 20
3 21 22 23
3 24 25 26
3 27 28 29
3 30 31 32
3 33 34 35
3 36 37 38
3 39 40 41
3 42 43 44
3 45 46 47
3 48 49 50
3 51 52 53
3 54 55 30
3 35 56 15
3 38 57 12
3 41 58 6
3 26 59 39
3 23 60 36
3 20 61 33
3 32 62 27
3 29 63 51
3 44 64 24
3 47 65 21
3 50 66 18
3 67 68 48
3 69 70 45
3 71 72 42
3 53 73 0
3 0 73 1
3 3 74 4
3 6 58 7
3 9 75 10
3 12 57 13
3 15 56 16
3 18 66 19
3 21 65 22
3 24 64 25
3 27 62 28
3 30 55 31
3 33 61 34
3 36 60 37
3 39 59 40
3 42 72 43
3 45 70 46
3 48 68 49
3 51 63 52
3 54 76 55
3 35 34 56
3 38 37 57
3 41 40 58
3 26 25 59
3 23 22 60
3 20 19 61
3 32 31 62
3 29 28 63
3 44 43 64
3 47 46 65
3 50 49 66
3 67 77 68
3 69 78 70
3 71 79 72
3 53 52 73
