ply
format ascii 1.0
comment Created by Blender 2.83.5 - www.blender.org, source file: ''
element vertex 142
property float x
property float y
property float z
property float nx
property float ny
property float nz
property float s
property float t
element face 108
property list uchar uint vertex_indices
end_header
0.000000 -1.000000 0.500000 0.382684 -0.000000 0.923880 1.000000 1.000000
0.353554 -0.500000 0.353554 0.382684 -0.000000 0.923880 0.875000 0.875000
0.000000 -0.500000 0.500000 0.382684 -0.000000 0.923880 1.000000 0.875000
0.353554 -1.000000 0.353554 0.923880 0.000000 0.382683 0.875000 1.000000
0.500000 -0.500000 -0.000000 0.923880 0.000000 0.382683 0.750000 0.875000
0.353554 -0.500000 0.353554 0.923880 0.000000 0.382683 0.875000 0.875000
0.500000 -1.000000 -0.000000 0.923880 0.000000 -0.382683 0.750000 1.000000
0.353554 -0.500000 -0.353554 0.923880 0.000000 -0.382683 0.625000 0.875000
0.500000 -0.500000 -0.000000 0.923880 0.000000 -0.382683 0.750000 0.875000
0.353554 -1.000000 -0.353554 0.382683 0.000000 -0.923880 0.625000 1.000000
-0.000000 -0.500000 -0.500000 0.382683 0.000000 -0.923880 0.500000 0.875000
0.353554 -0.500000 -0.353554 0.382683 0.000000 -0.923880 0.625000 0.875000
-0.000000 -1.000000 -0.500001 -0.382684 0.000000 -0.923880 0.500000 1.000000
-0.353554 -0.500000 -0.353554 -0.382684 0.000000 -0.923880 0.375000 0.875000
-0.000000 -0.500000 -0.500000 -0.382684 0.000000 -0.923880 0.500000 0.875000
-0.353554 -1.000000 -0.353554 -0.923880 0.000000 -0.382683 0.375000 1.000000
-0.500000 -0.500000 -0.000000 -0.923880 0.000000 -0.382683 0.250000 0.875000
-0.353554 -0.500000 -0.353554 -0.923880 0.000000 -0.382683 0.375000 0.875000
0.220384 -1.000000 -0.220384 0.000000 -1.000000 -0.000000 0.355784 0.144216
0.311670 -1.000000 -0.000000 0.000000 -1.000000 -0.000000 0.399602 0.250000
-0.311670 -1.000000 -0.000000 0.000000 -1.000000 -0.000000 0.100398 0.250000
-0.500000 -1.000000 -0.000000 -0.923880 0.000000 0.382683 0.250000 1.000000
-0.353554 -0.500000 0.353554 -0.923880 0.000000 0.382683 0.125000 0.875000
-0.500000 -0.500000 -0.000000 -0.923880 0.000000 0.382683 0.250000 0.875000
-0.353554 -1.000000 0.353554 -0.382684 0.000000 0.923879 0.125000 1.000000
0.000000 -0.500000 0.500000 -0.382684 0.000000 0.923879 0.000000 0.875000
-0.353554 -0.500000 0.353554 -0.382684 0.000000 0.923879 0.125000 0.875000
0.220384 1.000000 -0.220384 0.000000 1.000000 0.000000 0.855784 0.144216
-0.220384 1.000000 -0.220384 0.000000 1.000000 0.000000 0.644216 0.144216
-0.220384 1.000000 0.220384 0.000000 1.000000 0.000000 0.644216 0.355784
0.000000 1.000000 0.311670 0.000000 1.000000 -0.000000 0.750000 0.399602
0.353554 1.000000 0.353554 0.000000 1.000000 -0.000000 0.919706 0.419706
0.220384 1.000000 0.220384 0.000000 1.000000 -0.000000 0.855784 0.355784
0.000000 -1.000000 0.311670 0.000000 -1.000000 -0.000000 0.250000 0.399602
0.353554 -1.000000 0.353554 0.000000 -1.000000 -0.000000 0.419706 0.419706
0.000000 -1.000000 0.500000 0.000000 -1.000000 -0.000000 0.250000 0.490000
0.500000 1.000000 0.000000 -0.000000 1.000000 -0.000000 0.990000 0.250000
0.311670 1.000000 0.000000 -0.000000 1.000000 -0.000000 0.899602 0.250000
0.220384 -1.000000 0.220384 0.000000 -1.000000 -0.000000 0.355784 0.355784
0.353554 1.000000 -0.353554 -0.000000 1.000000 -0.000000 0.919706 0.080294
0.353554 -1.000000 -0.353554 -0.000000 -1.000000 0.000000 0.419706 0.080294
0.500000 -1.000000 -0.000000 -0.000000 -1.000000 0.000000 0.490000 0.250000
-0.000000 1.000000 -0.500000 -0.000000 1.000000 0.000000 0.750000 0.010000
-0.000000 1.000000 -0.311670 -0.000000 1.000000 0.000000 0.750000 0.100398
-0.000000 -1.000000 -0.311670 -0.000000 -1.000000 -0.000000 0.250000 0.100398
-0.353554 1.000000 -0.353554 -0.000000 1.000000 0.000000 0.580294 0.080294
-0.220384 -1.000000 -0.220384 -0.000000 -1.000000 0.000000 0.144216 0.144216
-0.000000 -1.000000 -0.500001 -0.000000 -1.000000 0.000000 0.250000 0.010000
-0.311670 1.000000 0.000000 -0.000000 1.000000 0.000000 0.600398 0.250000
-0.500000 1.000000 0.000000 -0.000000 1.000000 0.000000 0.510000 0.250000
-0.353554 -1.000000 -0.353554 -0.000000 -1.000000 0.000000 0.080294 0.080294
-0.353554 1.000000 0.353554 0.000000 1.000000 0.000000 0.580294 0.419706
-0.353554 -1.000000 0.353554 0.000000 -1.000000 0.000000 0.080294 0.419706
-0.500000 -1.000000 -0.000000 0.000000 -1.000000 0.000000 0.010000 0.250000
0.000000 1.000000 0.500001 0.000000 1.000000 0.000000 0.750000 0.490000
-0.220384 -1.000000 0.220384 0.000000 -1.000000 0.000000 0.144216 0.355784
-0.353554 -0.000000 0.353554 -0.382684 -0.000000 0.923880 0.125000 0.750000
0.000000 0.500000 0.500000 -0.382684 -0.000000 0.923880 0.000000 0.625000
-0.353554 0.500000 0.353554 -0.382684 -0.000000 0.923880 0.125000 0.625000
-0.500000 -0.000000 0.000000 -0.923880 -0.000000 0.382683 0.250000 0.750000
-0.353554 0.500000 0.353554 -0.923880 -0.000000 0.382683 0.125000 0.625000
-0.500000 0.500000 0.000000 -0.923880 -0.000000 0.382683 0.250000 0.625000
-0.353554 0.000000 -0.353554 -0.923880 0.000000 -0.382683 0.375000 0.750000
-0.500000 0.500000 0.000000 -0.923880 0.000000 -0.382683 0.250000 0.625000
-0.353554 0.500000 -0.353554 -0.923880 0.000000 -0.382683 0.375000 0.625000
-0.000000 0.000000 -0.500000 -0.382684 0.000000 -0.923880 0.500000 0.750000
-0.353554 0.500000 -0.353554 -0.382684 0.000000 -0.923880 0.375000 0.625000
-0.000000 0.500000 -0.500000 -0.382684 0.000000 -0.923880 0.500000 0.625000
0.353554 0.000000 -0.353554 0.382684 0.000000 -0.923880 0.625000 0.750000
-0.000000 0.500000 -0.500000 0.382684 0.000000 -0.923880 0.500000 0.625000
0.353554 0.500000 -0.353554 0.382684 0.000000 -0.923880 0.625000 0.625000
0.500000 0.000000 -0.000000 0.923879 0.000000 -0.382683 0.750000 0.750000
0.353554 0.500000 -0.353554 0.923879 0.000000 -0.382683 0.625000 0.625000
0.500000 0.500000 -0.000000 0.923879 0.000000 -0.382683 0.750000 0.625000
0.353554 -0.000000 0.353554 0.923880 -0.000000 0.382683 0.875000 0.750000
0.500000 0.500000 -0.000000 0.923880 -0.000000 0.382683 0.750000 0.625000
0.353554 0.500000 0.353554 0.923880 -0.000000 0.382683 0.875000 0.625000
0.000000 -0.000000 0.500000 0.382683 0.000000 0.923880 1.000000 0.750000
0.353554 0.500000 0.353554 0.382683 0.000000 0.923880 0.875000 0.625000
0.000000 0.500000 0.500000 0.382683 0.000000 0.923880 1.000000 0.625000
-0.353554 -0.500000 0.353554 -0.382684 -0.000000 0.923880 0.125000 0.875000
0.000000 -0.000000 0.500000 -0.382684 -0.000000 0.923880 0.000000 0.750000
-0.353554 -0.000000 0.353554 -0.923880 -0.000000 0.382683 0.125000 0.750000
-0.500000 -0.000000 0.000000 -0.923880 0.000000 -0.382683 0.250000 0.750000
-0.353554 0.000000 -0.353554 -0.382684 0.000000 -0.923880 0.375000 0.750000
-0.000000 0.000000 -0.500000 0.382683 0.000000 -0.923880 0.500000 0.750000
0.353554 0.000000 -0.353554 0.382683 0.000000 -0.923880 0.625000 0.750000
0.500000 -0.500000 -0.000000 0.923879 0.000000 -0.382683 0.750000 0.875000
0.353554 0.000000 -0.353554 0.923879 0.000000 -0.382683 0.625000 0.750000
0.500000 0.000000 -0.000000 0.923880 -0.000000 0.382683 0.750000 0.750000
0.000000 -0.500000 0.500000 0.382683 0.000000 0.923880 1.000000 0.875000
0.353554 -0.000000 0.353554 0.382683 0.000000 0.923880 0.875000 0.750000
0.000000 0.500000 0.500000 0.382684 -0.000000 0.923880 1.000000 0.625000
0.353554 1.000000 0.353554 0.382684 -0.000000 0.923880 0.875000 0.500000
0.000000 1.000000 0.500001 0.382684 -0.000000 0.923880 1.000000 0.500000
0.500000 1.000000 0.000000 0.923880 0.000000 0.382683 0.750000 0.500000
0.353554 1.000000 0.353554 0.923880 0.000000 0.382683 0.875000 0.500000
0.500000 0.500000 -0.000000 0.923880 0.000000 -0.382683 0.750000 0.625000
0.353554 1.000000 -0.353554 0.923880 0.000000 -0.382683 0.625000 0.500000
0.500000 1.000000 0.000000 0.923880 0.000000 -0.382683 0.750000 0.500000
0.353554 0.500000 -0.353554 0.382683 0.000000 -0.923880 0.625000 0.625000
-0.000000 1.000000 -0.500000 0.382683 0.000000 -0.923880 0.500000 0.500000
0.353554 1.000000 -0.353554 0.382683 0.000000 -0.923880 0.625000 0.500000
-0.353554 1.000000 -0.353554 -0.382684 0.000000 -0.923880 0.375000 0.500000
-0.000000 1.000000 -0.500000 -0.382684 0.000000 -0.923880 0.500000 0.500000
-0.500000 1.000000 0.000000 -0.923880 0.000000 -0.382683 0.250000 0.500000
-0.353554 1.000000 -0.353554 -0.923880 0.000000 -0.382683 0.375000 0.500000
-0.353554 1.000000 0.353554 -0.923880 -0.000000 0.382683 0.125000 0.500000
-0.500000 1.000000 0.000000 -0.923880 -0.000000 0.382683 0.250000 0.500000
-0.353554 0.500000 0.353554 -0.382684 0.000000 0.923879 0.125000 0.625000
0.000000 1.000000 0.500001 -0.382684 0.000000 0.923879 0.000000 0.500000
-0.353554 1.000000 0.353554 -0.382684 0.000000 0.923879 0.125000 0.500000
0.000000 -1.000000 0.500000 0.382683 0.000000 0.923880 1.000000 1.000000
0.353554 -1.000000 0.353554 0.382683 0.000000 0.923880 0.875000 1.000000
0.353554 -0.500000 0.353554 0.382683 0.000000 0.923880 0.875000 0.875000
0.500000 -1.000000 -0.000000 0.923880 -0.000000 0.382683 0.750000 1.000000
0.500000 -1.000000 -0.000000 0.923879 0.000000 -0.382683 0.750000 1.000000
0.353554 -1.000000 -0.353554 0.923879 0.000000 -0.382683 0.625000 1.000000
0.353554 -0.500000 -0.353554 0.923879 0.000000 -0.382683 0.625000 0.875000
0.353554 -1.000000 -0.353554 0.382684 0.000000 -0.923880 0.625000 1.000000
-0.000000 -1.000000 -0.500001 0.382684 0.000000 -0.923880 0.500000 1.000000
-0.000000 -0.500000 -0.500000 0.382684 0.000000 -0.923880 0.500000 0.875000
-0.353554 -1.000000 -0.353554 -0.382684 -0.000000 -0.923880 0.375000 1.000000
-0.500000 -1.000000 -0.000000 -0.923880 0.000000 -0.382683 0.250000 1.000000
-0.353554 -1.000000 0.353554 -0.923880 0.000000 0.382683 0.125000 1.000000
-0.353554 -1.000000 0.353554 -0.382684 -0.000000 0.923880 0.125000 1.000000
0.000000 -1.000000 0.500000 -0.382684 -0.000000 0.923880 0.000000 1.000000
0.000000 -0.500000 0.500000 -0.382684 -0.000000 0.923880 0.000000 0.875000
-0.353554 -0.000000 0.353554 -0.382684 0.000000 0.923879 0.125000 0.750000
0.000000 -0.000000 0.500000 -0.382684 0.000000 0.923879 0.000000 0.750000
0.000000 0.500000 0.500000 -0.382684 0.000000 0.923879 0.000000 0.625000
-0.000000 0.500000 -0.500000 0.382683 0.000000 -0.923880 0.500000 0.625000
0.500000 0.000000 -0.000000 0.923880 0.000000 -0.382683 0.750000 0.750000
0.353554 0.000000 -0.353554 0.923880 0.000000 -0.382683 0.625000 0.750000
0.353554 0.500000 -0.353554 0.923880 0.000000 -0.382683 0.625000 0.625000
0.000000 -0.500000 0.500000 0.382684 -0.000000 0.923879 1.000000 0.875000
0.353554 -0.500000 0.353554 0.382684 -0.000000 0.923879 0.875000 0.875000
0.353554 -0.000000 0.353554 0.382684 -0.000000 0.923879 0.875000 0.750000
0.353554 1.000000 0.353554 0.382683 0.000000 0.923880 0.875000 0.500000
0.353554 1.000000 -0.353554 0.923879 0.000000 -0.382683 0.625000 0.500000
-0.000000 1.000000 -0.500000 0.382684 0.000000 -0.923880 0.500000 0.500000
0.000000 1.000000 0.500001 -0.382684 -0.000000 0.923880 0.000000 0.500000
3 0 1 2
3 3 4 5
3 6 7 8
3 9 10 11
3 12 13 14
3 15 16 17
3 18 19 20
3 21 22 23
3 24 25 26
3 27 28 29
3 30 31 32
3 33 34 35
3 32 36 37
3 19 34 38
3 37 39 27
3 19 40 41
3 27 42 43
3 44 40 18
3 43 45 28
3 46 47 44
3 48 45 49
3 20 50 46
3 48 51 29
3 20 52 53
3 30 51 54
3 33 52 55
3 19 38 33
3 33 55 19
3 55 20 19
3 20 46 44
3 44 18 20
3 29 30 27
3 30 32 27
3 32 37 27
3 27 43 28
3 28 48 29
3 56 57 58
3 59 60 61
3 62 63 64
3 65 66 67
3 68 69 70
3 71 72 73
3 74 75 76
3 77 78 79
3 80 81 56
3 23 82 59
3 17 83 62
3 14 84 65
3 11 85 86
3 87 88 71
3 5 89 74
3 90 91 77
3 92 93 94
3 76 95 96
3 97 98 99
3 100 101 102
3 67 103 104
3 64 105 106
3 61 107 108
3 109 110 111
3 112 113 114
3 3 115 4
3 116 117 118
3 119 120 121
3 12 122 13
3 15 123 16
3 21 124 22
3 125 126 127
3 30 54 31
3 33 38 34
3 32 31 36
3 19 41 34
3 37 36 39
3 19 18 40
3 27 39 42
3 44 47 40
3 43 42 45
3 46 50 47
3 48 28 45
3 20 53 50
3 48 49 51
3 20 55 52
3 30 29 51
3 33 35 52
3 128 129 130
3 59 82 60
3 62 83 63
3 65 84 66
3 86 85 131
3 132 133 134
3 74 89 75
3 77 91 78
3 80 127 81
3 23 22 82
3 17 16 83
3 14 13 84
3 11 10 85
3 8 7 133
3 5 4 89
3 135 136 137
3 79 78 138
3 76 75 95
3 73 72 139
3 70 69 140
3 67 66 103
3 64 63 105
3 61 60 107
3 58 57 141
